<?xml version="1.0" encoding="UTF-8"?>
<svg width="102px" height="102px" viewBox="0 0 102 102" version="1.1" xmlns="http://www.w3.org/2000/svg" xmlns:xlink="http://www.w3.org/1999/xlink">
    <!-- Generator: Sketch 50.2 (55047) - http://www.bohemiancoding.com/sketch -->
    <title>Shape</title>
    <desc>Created with Sketch.</desc>
    <defs></defs>
    <g id="Главная" stroke="none" strokeWidth="1" fill="none" fillRule="evenodd">
        <g id="Desktop-HD-Copy-4" transform="translate(-317.000000, -243.000000)" fill="#5E77FF" fillRule="nonzero">
            <path d="M367.99915,243 C339.833421,243 317,265.833948 317,293.99949 C317,322.164352 339.833421,345 367.99915,345 C396.164879,345 419,322.164352 419,293.99949 C419,265.833268 396.164879,243 367.99915,243 Z M368.156659,319 L368.156659,318.999315 L367.844363,318.999315 L346,318.999315 C346,302.954464 360.030142,302.95823 363.143557,298.762791 L363.499833,296.84964 C359.125642,294.623167 356.037797,289.255251 356.037797,282.977158 C356.037797,274.706129 361.394562,268 368.000852,268 C374.607143,268 379.963907,274.706129 379.963907,282.977158 C379.963907,289.201832 376.930953,294.53619 372.615062,296.797933 L373.020774,298.972015 C376.436598,302.964052 390,303.224298 390,319 L368.156659,319 Z" id="Shape"></path>
        </g>
    </g>
</svg>
