<?xml version="1.0" encoding="UTF-8"?>
<svg width="253px" height="253px" viewBox="0 0 253 253" version="1.1" xmlns="http://www.w3.org/2000/svg" xmlns:xlink="http://www.w3.org/1999/xlink">
    <!-- Generator: Sketch 50.2 (55047) - http://www.bohemiancoding.com/sketch -->
    <title>Shape</title>
    <desc>Created with Sketch.</desc>
    <defs></defs>
    <g id="Главная" stroke="none" stroke-width="1" fill="none" fill-rule="evenodd">
        <path d="M126.498735,0 C56.6358373,0 0,56.6369576 0,126.496627 C0,196.356296 56.6358373,253 126.497892,253 C196.359946,253 253,196.358826 253,126.496627 C253,56.6344276 196.360789,0 126.498735,0 Z M134.984821,142.391135 C134.978075,142.724 134.928322,143.056864 134.881942,143.390574 C134.849055,143.640645 134.833876,143.89663 134.777377,144.142477 C134.720878,144.398462 134.623903,144.651067 134.541262,144.907052 C134.4426,145.216262 134.350684,145.524627 134.221664,145.816094 C134.197209,145.866785 134.188776,145.920854 134.166851,145.971544 C133.976273,146.378754 133.755337,146.76062 133.513319,147.122209 C133.49814,147.144175 133.477901,147.16614 133.462723,147.188106 C133.186974,147.593627 132.872435,147.961975 132.541874,148.307512 C132.449958,148.402133 132.356355,148.487462 132.259379,148.577014 C131.968452,148.854965 131.662346,149.10926 131.336844,149.34159 C131.236495,149.414245 131.140363,149.49028 131.034954,149.560402 C130.617537,149.834128 130.179881,150.074906 129.724516,150.272597 C129.625854,150.316529 129.522975,150.342719 129.422626,150.382426 C129.038096,150.531117 128.648506,150.654463 128.246267,150.748239 C128.102068,150.782877 127.959556,150.814136 127.812828,150.840326 C127.296748,150.934948 126.773922,151 126.244349,151 C126.137254,151 126.027629,150.967051 125.920534,150.962827 C125.412887,150.943396 124.910299,150.903689 124.427107,150.800619 C124.276162,150.76767 124.127747,150.701773 123.976802,150.660376 C123.526497,150.537875 123.086311,150.401857 122.666364,150.213459 C122.618297,150.188959 122.567701,150.184735 122.519635,150.162769 L74.0190809,127.243249 C69.6492666,125.179318 67.7772119,119.955705 69.8373154,115.577772 C71.8974189,111.202373 77.1113444,109.324306 81.4811587,111.388237 L117.502191,128.406587 L117.502191,52.7643148 C117.502191,47.924257 121.41917,44 126.250252,44 C131.081334,44 134.998313,47.924257 134.998313,52.7643148 L134.998313,142.233151 L135,142.233151 C135,142.28553 134.984821,142.33791 134.984821,142.391135 Z" id="Shape" fill="#FD6060" fill-rule="nonzero"></path>
    </g>
</svg>