<?xml version="1.0" encoding="UTF-8"?>
<svg width="253px" height="253px" viewBox="0 0 253 253" version="1.1" xmlns="http://www.w3.org/2000/svg" xmlns:xlink="http://www.w3.org/1999/xlink">
    <!-- Generator: Sketch 50.2 (55047) - http://www.bohemiancoding.com/sketch -->
    <title>Group 5</title>
    <desc>Created with Sketch.</desc>
    <defs></defs>
    <g id="Главная" stroke="none" strokeWidth="1" fill="none" fillRule="evenodd">
        <g id="Group-5">
            <circle id="Oval-Copy-2" fill="#000000" cx="126.5" cy="126.5" r="126.5"></circle>
            <g id="cute-rocket-launching" transform="translate(63.000000, 63.000000)" fill="#FFFFFF" fillRule="nonzero">
                <path d="M11.9153986,69.2244794 C21.7559538,55.3029309 27.544418,46.3340055 31.7647059,39.7058824 C15.5459592,41.1156697 0,60.9498355 0,60.9498355 L10.7052117,71.4705882 C11.0158568,70.6926338 11.4124692,69.9371281 11.9153986,69.2244794 Z" id="Shape"></path>
                <path d="M55.5882353,124.301704 L66.1047547,135 C66.1047547,135 85.9424375,119.454474 87.3529412,103.235294 C80.7254111,107.454141 71.7573838,113.240832 57.8283029,123.084394 C57.1236635,123.58195 56.3724835,123.988136 55.5882353,124.301704 Z" id="Shape"></path>
                <path d="M37.6730229,118.352524 C35.8533257,119.088229 34.0649032,119.870044 32.2003513,120.493356 C27.2202572,122.158676 22.0911964,123.283848 16.8909444,124.00185 C14.7111759,124.302801 12.5112434,124.558054 10.3076073,124.725204 C10.3285943,124.453071 10.3487583,124.180527 10.3718029,123.908806 C10.8265214,118.607777 11.6326696,113.334332 12.9350987,108.172457 C13.5626515,105.681269 14.36345,103.259659 15.2230944,100.841342 C15.7576459,99.3378197 16.4247036,97.8989337 17.0975225,96.4600476 L15.9313031,95.2941176 C13.3375555,97.0372488 11.0816577,99.2398355 9.16731309,101.731846 C6.33324366,105.421899 4.209029,109.602285 2.72388937,114.007459 C1.12846507,118.737462 0.17705393,123.747009 0.0289103273,128.740911 C0.00792331687,129.442445 -0.0402233542,130.159212 0.0684152882,130.855394 C0.208328691,131.754543 0.60296679,132.605524 1.19595271,133.295119 C1.78276598,133.977303 2.55517027,134.492338 3.41111109,134.768587 C4.12960756,135.000374 4.85221914,135.004491 5.59746377,134.998727 C10.129012,134.960851 14.7309284,134.173271 19.0686554,132.883832 C27.0021569,130.525623 35.0113762,126.089161 39.7058824,119.07876 L38.5709377,117.944119 C38.273416,118.084096 37.9750713,118.221192 37.6730229,118.352524 Z" id="Shape"></path>
                <path d="M133.712205,1.28903955 C133.712205,1.28903955 133.711382,1.28862785 133.710558,1.28780444 C132.884705,0.462341557 131.765315,0 130.600227,0 C130.571409,0 130.542179,0.000411702188 130.51336,0.000823404376 C116.347048,0.278722381 81.3956555,2.92843766 62.8341223,21.4912659 C54.4080278,29.9175746 51.6694544,34.3038497 45.666989,43.9162724 C41.3442259,50.8369862 35.4261573,60.3164291 24.6101923,75.8845356 C23.39529,77.6342699 23.6064879,80.0027926 25.1128679,81.5083875 L53.4899552,109.886608 C54.3413337,110.738419 55.4689573,111.176471 56.6039914,111.176471 C57.4763662,111.176471 58.3528579,110.917922 59.1136642,110.389708 C74.6871388,99.5709976 84.1626356,93.6540138 91.0807034,89.3327876 C100.692058,83.3305814 105.079045,80.591115 113.506787,72.1639829 C132.101255,53.5682185 134.732377,18.6389932 134.999153,4.48426023 C135.02262,3.28908878 134.557408,2.13549925 133.712205,1.28903955 Z M100.852206,54.833791 C95.1391604,60.5465706 85.8777433,60.5465706 80.1646972,54.833791 C74.4508278,49.1205998 74.4516512,39.859359 80.1655206,34.1465795 C85.8777433,28.4333882 95.1391604,28.4325648 100.852206,34.1453444 C106.563606,39.8581239 106.564429,49.1214232 100.852206,54.833791 Z" id="Shape"></path>
            </g>
        </g>
    </g>
</svg>
