<?xml version="1.0" encoding="UTF-8"?>
<svg width="272px" height="272px" viewBox="0 0 272 272" version="1.1" xmlns="http://www.w3.org/2000/svg" xmlns:xlink="http://www.w3.org/1999/xlink">
    <!-- Generator: Sketch 50.2 (55047) - http://www.bohemiancoding.com/sketch -->
    <title>Group 4</title>
    <desc>Created with Sketch.</desc>
    <defs></defs>
    <g id="Главная" stroke="none" stroke-width="1" fill="none" fill-rule="evenodd">
        <g id="Group-4">
            <circle id="Oval" fill="#5E77FF" cx="136" cy="136" r="136"></circle>
            <g id="house-black-silhouette-without-door" transform="translate(53.000000, 46.000000)" fill="#F8F8F8" fill-rule="nonzero">
                <path d="M163.920246,77.5766409 C166.92939,74.3023393 166.638811,69.2838135 163.271449,66.3703489 L89.083963,2.14563936 C85.7166009,-0.767825261 80.3178908,-0.706793478 77.0214148,2.28322855 L2.58176914,69.7945532 C-0.714706911,72.7845752 -0.876500467,77.7966766 2.22355063,80.9847842 L4.08985823,82.9078208 C7.18612153,86.0959284 12.1908994,86.4760386 15.2611892,83.7542352 L20.8243984,78.8251157 L20.8243984,150.98824 C20.8243984,155.415721 24.4504138,159 28.9221929,159 L57.9389742,159 C62.4107533,159 66.0367687,155.415721 66.0367687,150.98824 L66.0367687,100.503177 L103.047991,100.503177 L103.047991,150.98824 C102.983599,155.412509 106.183215,158.996788 110.654994,158.996788 L141.40551,158.996788 C145.877289,158.996788 149.503304,155.412509 149.503304,150.985028 L149.503304,79.8412413 C149.503304,79.8412413 151.040072,81.1732332 152.9356,82.8216268 C154.827881,84.4668081 158.802375,83.147665 161.811519,79.8701511 L163.920246,77.5766409 Z" id="Shape"></path>
            </g>
        </g>
    </g>
</svg>