<?xml version="1.0" encoding="UTF-8"?>
<svg width="252px" height="252px" viewBox="0 0 252 252" version="1.1" xmlns="http://www.w3.org/2000/svg" xmlns:xlink="http://www.w3.org/1999/xlink">
    <!-- Generator: Sketch 50.2 (55047) - http://www.bohemiancoding.com/sketch -->
    <title>dollar-coin-money</title>
    <desc>Created with Sketch.</desc>
    <defs></defs>
    <g id="Главная" stroke="none" strokeWidth="1" fill="none" fillRule="evenodd">
        <g id="dollar-coin-money" fill="#FFB500" fillRule="nonzero">
            <path d="M126,0 C56.4169922,0 0,56.4169922 0,126 C0,195.583008 56.4169922,252 126,252 C195.598266,252 252,195.583008 252,126 C252,56.4169922 195.598266,0 126,0 Z M160.360594,174.649781 C154.161984,181.60193 145.211063,185.693484 133.505859,186.923953 L133.505859,204.75 L118.58618,204.75 L118.58618,187.015992 C99.0679922,185.016727 86.9936484,173.665406 82.3336172,152.993531 L105.404906,146.979492 C107.542969,159.976195 114.618164,166.467164 126.630492,166.467164 C132.244383,166.467164 136.397461,165.083133 139.042969,162.298828 C141.688477,159.514523 143.010984,156.161742 143.010984,152.224242 C143.010984,148.148437 141.687984,145.056516 139.042969,142.964719 C136.397461,140.858156 130.506469,138.196406 121.385742,134.966672 C113.187867,132.121828 106.77368,129.321773 102.159422,126.523195 C97.5451641,123.754641 93.7922344,119.863406 90.9158906,114.864258 C88.0395469,109.849852 86.5939922,104.005125 86.5939922,97.3605937 C86.5939922,88.6395234 89.1779766,80.7797812 94.3154297,73.7971172 C99.4528828,66.8297109 107.542969,62.5688437 118.586672,61.0155 L118.586672,47.25 L133.506352,47.25 L133.506352,61.0159922 C150.179203,63.01575 160.976813,72.4440937 165.882938,89.3167734 L145.334109,97.7454844 C141.319828,86.1790781 135.135984,80.395875 126.738773,80.395875 C122.524172,80.395875 119.140383,81.6878672 116.602664,84.2718516 C114.049195,86.8558359 112.772953,89.9935312 112.772953,93.6696797 C112.772953,97.4226094 114.003422,100.298953 116.464359,102.313969 C118.910039,104.313727 124.185797,106.789922 132.245367,109.758305 C141.104742,112.988531 148.056891,116.048953 153.086555,118.925297 C158.131477,121.801641 162.145758,125.785406 165.160406,130.845586 C168.159797,135.921516 169.666383,141.843516 169.666383,148.626352 C169.666383,159.038086 166.559203,167.712891 160.360594,174.649781 Z" id="Shape"></path>
        </g>
    </g>
</svg>
